# xmcd
#
# Track frame offsets: 
#        150
#        16532
#        33892
#        47046
#        61877
#        75724
#        88962
#        101536
#        112738
#        124669
#        141051
#        154929
#        170898
#        185002
#        200262
#        214168
#        230376
#        245428
#        261799
#        277774
#        291237
#
# Disc length: 4111 seconds
#
# Revision: 0
# Processed by: cddbd v1.5.2PL0 Copyright (c) Steve Scherf et al.
# Submitted via: ExactAudioCopy v0.99pb5
#
DISCID=1f100d15
DTITLE=Tracy Lawrence - The Very Best Of Tracy Lawrence
DYEAR=2007
DGENRE=Country
TTITLE0=Sticks And Stones
TTITLE1=Today's Lonely Fool
TTITLE2=Runnin' Behind
TTITLE3=Somebody Paints The Wall
TTITLE4=Alibis
TTITLE5=Can't Break It To My Heart
TTITLE6=My Second Home
TTITLE7=If The Good Die Young
TTITLE8=Renegades, Rebels, And Rogues
TTITLE9=I See It Now
TTITLE10=As Any Fool Can See
TTITLE11=Texas Tornado
TTITLE12=If The World Had A Front Porch
TTITLE13=If You Loved Me
TTITLE14=Time Marches On
TTITLE15=Stars Over Texas
TTITLE16=Is That A Tear
TTITLE17=Better Man, Better Off
TTITLE18=How A Cowgirl Says Goodbye
TTITLE19=Lessons Learned
TTITLE20=Paint Me A Birmingham
EXTD=
EXTT0=
EXTT1=
EXTT2=
EXTT3=
EXTT4=
EXTT5=
EXTT6=
EXTT7=
EXTT8=
EXTT9=
EXTT10=
EXTT11=
EXTT12=
EXTT13=
EXTT14=
EXTT15=
EXTT16=
EXTT17=
EXTT18=
EXTT19=
EXTT20=
PLAYORDER=
